<svg xmlns="http://www.w3.org/2000/svg" xmlns:xlink="http://www.w3.org/1999/xlink" width="90" zoomAndPan="magnify" viewBox="0 0 67.5 30.000001" height="40" preserveAspectRatio="xMidYMid meet" version="1.0"><defs><g/><clipPath id="id1"><path d="M 59 12 L 66.167969 12 L 66.167969 21 L 59 21 Z M 59 12 " clip-rule="nonzero"/></clipPath></defs><path fill="rgb(0%, 0%, 0%)" d="M 28.105469 14.683594 C 28.023438 14.273438 27.914062 14.183594 27.789062 14.402344 C 26.609375 19.691406 23.089844 25.378906 15.929688 25.851562 C 16.015625 25.648438 16.066406 25.433594 16.078125 25.210938 C 16.082031 24.746094 13.710938 24.804688 14.015625 25.816406 C 13.332031 25.742188 12.660156 25.613281 12 25.421875 C 11.34375 25.234375 10.703125 24.992188 10.085938 24.695312 C 9.472656 24.398438 8.886719 24.046875 8.332031 23.648438 C 7.777344 23.25 7.261719 22.808594 6.785156 22.320312 C 6.308594 21.835938 5.878906 21.3125 5.496094 20.75 C 5.109375 20.1875 4.777344 19.601562 4.5 18.980469 C 4.21875 18.363281 3.996094 17.726562 3.832031 17.070312 C 3.664062 16.414062 3.558594 15.75 3.507812 15.074219 C 3.863281 15.808594 5.398438 14.632812 4.765625 14.050781 C 4.691406 13.609375 3.859375 13.257812 3.507812 13.257812 C 3.558594 12.585938 3.667969 11.921875 3.839844 11.269531 C 4.007812 10.617188 4.234375 9.980469 4.511719 9.367188 C 4.792969 8.75 5.125 8.164062 5.507812 7.605469 C 5.894531 7.046875 6.324219 6.523438 6.796875 6.039062 C 7.273438 5.554688 7.789062 5.113281 8.339844 4.714844 C 8.894531 4.316406 9.476562 3.96875 10.09375 3.671875 C 10.707031 3.371094 11.34375 3.128906 12 2.9375 C 12.65625 2.75 13.324219 2.617188 14.003906 2.539062 C 14.128906 3.125 14.773438 3.976562 15.273438 3.429688 C 15.582031 3.371094 15.839844 2.914062 15.976562 2.5 C 22.386719 2.75 27.101562 8.527344 27.457031 14.183594 C 27.429688 14.136719 27.402344 14.089844 27.363281 14.050781 C 27.292969 13.605469 26.457031 13.257812 26.105469 13.257812 C 25.757812 13.257812 25.753906 14.871094 26.257812 15.25 C 26.636719 15.535156 27.683594 14.789062 27.496094 14.273438 C 28.257812 6.183594 19.796875 -1.042969 11.015625 1.644531 C 0.570312 4.730469 -1.808594 18.949219 7.128906 25.28125 C 15.8125 31.839844 29.1875 25.023438 28.105469 14.683594 Z M 28.105469 14.683594 " fill-opacity="1" fill-rule="nonzero"/><path fill="rgb(0%, 0%, 0%)" d="M 13.699219 14.363281 C 13.050781 15.074219 9.210938 19.433594 12.207031 17.285156 C 13.53125 16.546875 14.742188 15.660156 15.847656 14.628906 C 15.9375 12.734375 16.085938 10.324219 16.078125 8.570312 C 16.078125 5.878906 14.441406 5.847656 14.058594 9.761719 C 13.957031 11.140625 13.96875 12.515625 14.089844 13.890625 C 14.117188 13.933594 13.734375 14.308594 13.699219 14.363281 Z M 13.699219 14.363281 " fill-opacity="1" fill-rule="nonzero"/><g fill="rgb(0%, 0%, 0%)" fill-opacity="1"><g transform="translate(29.362345, 19.233868)"><g><path d="M 0.1875 -2.988281 C 0.09375 -2.679688 0.015625 -2.351562 -0.015625 -2.058594 C -0.015625 -2.042969 0 -2.011719 0.015625 -1.996094 L 0 -1.996094 C 0.03125 -1.917969 0.046875 -1.828125 0.046875 -1.765625 C 0.0625 -1.609375 0.03125 -1.453125 0.015625 -1.332031 C 0 -1.238281 -0.015625 -1.160156 -0.015625 -1.050781 L 0.046875 -1.007812 C 0.171875 -0.527344 0.589844 -0.078125 0.820312 -0.078125 C 0.898438 -0.078125 0.976562 -0.140625 1.007812 -0.277344 L 1.238281 -0.203125 L 1.269531 -0.203125 C 1.394531 -0.203125 1.410156 -0.339844 1.441406 -0.542969 C 1.484375 -0.773438 1.53125 -1.113281 1.75 -1.5 L 1.75 -1.484375 C 1.78125 -1.515625 1.78125 -1.5625 1.765625 -1.609375 C 1.765625 -1.6875 1.8125 -1.8125 1.84375 -1.902344 C 1.871094 -2.027344 1.917969 -2.136719 1.902344 -2.246094 C 1.964844 -2.367188 2.027344 -2.523438 2.089844 -2.679688 C 2.335938 -3.25 2.617188 -3.917969 3.019531 -4.441406 C 3.113281 -4.84375 3.699219 -5.261719 3.855469 -5.261719 C 3.945312 -5.355469 4.023438 -5.417969 4.070312 -5.449219 C 4.070312 -5.433594 4.070312 -5.433594 4.007812 -5.324219 L 3.945312 -5.214844 C 3.960938 -5.046875 3.839844 -4.84375 3.714844 -4.628906 C 3.621094 -4.488281 3.527344 -4.304688 3.5 -4.257812 C 3.113281 -3.34375 2.847656 -2.414062 2.894531 -1.949219 C 2.957031 -1.144531 3.296875 -0.292969 4.210938 -0.292969 C 4.304688 -0.292969 4.410156 -0.308594 4.519531 -0.324219 L 4.597656 -0.308594 C 4.644531 -0.292969 4.691406 -0.277344 4.738281 -0.277344 C 4.859375 -0.277344 5.464844 -0.726562 5.589844 -0.851562 L 5.574219 -0.851562 C 5.929688 -1.039062 6.425781 -1.59375 6.578125 -1.980469 L 7.152344 -2.878906 C 7.304688 -3.125 7.382812 -3.328125 7.476562 -3.515625 L 7.769531 -4.148438 C 7.816406 -4.210938 7.832031 -4.289062 7.816406 -4.351562 C 7.816406 -4.425781 7.753906 -4.519531 7.664062 -4.519531 C 7.445312 -4.519531 7.042969 -3.761719 6.765625 -3.1875 C 6.65625 -2.957031 6.546875 -2.722656 6.453125 -2.570312 C 5.945312 -1.65625 5.0625 -0.867188 4.550781 -0.773438 C 4.535156 -0.789062 4.535156 -0.820312 4.519531 -0.851562 C 4.535156 -1.039062 4.660156 -1.410156 4.84375 -1.8125 C 4.84375 -1.828125 4.828125 -1.859375 4.828125 -1.886719 L 5.308594 -3.171875 L 5.308594 -3.1875 L 5.371094 -3.4375 L 5.574219 -4.023438 C 5.632812 -4.179688 5.695312 -4.351562 5.742188 -4.550781 C 5.648438 -4.707031 5.589844 -4.8125 5.511719 -4.890625 C 5.542969 -5.03125 5.542969 -5.140625 5.527344 -5.246094 C 5.496094 -5.742188 5.109375 -6.378906 4.675781 -6.378906 C 4.164062 -6.378906 3.1875 -5.355469 2.695312 -4.828125 L 2.554688 -4.675781 L 2.617188 -4.890625 C 2.617188 -5.140625 2.539062 -5.324219 2.476562 -5.464844 C 2.429688 -5.589844 2.382812 -5.710938 2.367188 -5.820312 C 2.367188 -5.867188 2.351562 -5.929688 2.335938 -6.007812 L 2.320312 -6.082031 C 2.089844 -6.363281 1.515625 -6.71875 1.207031 -6.71875 C 1.082031 -6.71875 1.050781 -6.640625 1.050781 -6.515625 C 1.082031 -6.207031 0.945312 -5.789062 0.757812 -5.339844 L 0.433594 -4.394531 C 0.433594 -4.363281 0.433594 -4.335938 0.449219 -4.304688 L 0.464844 -4.273438 L 0.15625 -3.359375 L 0.15625 -3.140625 C 0.15625 -3.113281 0.171875 -3.082031 0.171875 -3.066406 C 0.171875 -3.035156 0.1875 -3.019531 0.1875 -2.988281 Z M 0.1875 -2.988281 "/></g></g></g><g fill="rgb(0%, 0%, 0%)" fill-opacity="1"><g transform="translate(35.879026, 19.233868)"><g/></g></g><g fill="rgb(0%, 0%, 0%)" fill-opacity="1"><g transform="translate(41.405048, 19.233868)"><g><path d="M 2.445312 -6.050781 C 2.445312 -6.035156 2.445312 -6.019531 2.429688 -6.007812 L 2.414062 -5.851562 C 2.398438 -5.648438 2.320312 -5.402344 2.289062 -5.140625 L 2.289062 -5 L 2.230469 -4.566406 C 2.199219 -4.378906 2.152344 -4.195312 2.136719 -4.023438 L 2.089844 -3.886719 C 1.964844 -3.328125 1.765625 -2.648438 1.734375 -2.230469 C 1.703125 -1.996094 1.6875 -1.828125 1.6875 -1.671875 L 1.6875 -1.394531 C 1.6875 -0.976562 1.5 -0.605469 1.46875 -0.355469 C 1.441406 -0.292969 1.425781 -0.230469 1.394531 -0.1875 C 1.316406 0.339844 1.285156 0.558594 1.285156 0.664062 C 1.285156 0.757812 1.347656 0.789062 1.394531 0.851562 C 1.410156 1.066406 1.996094 1.5 2.121094 1.515625 C 2.152344 1.515625 2.320312 1.703125 2.367188 1.703125 C 2.382812 1.703125 2.382812 1.6875 2.398438 1.6875 C 2.460938 1.6875 2.585938 1.765625 2.632812 1.765625 C 2.769531 1.71875 2.738281 1.300781 2.878906 1.191406 C 2.910156 1.175781 2.925781 1.128906 2.925781 1.082031 C 2.925781 1.039062 2.910156 0.992188 2.910156 0.929688 C 2.910156 0.789062 3.035156 0.742188 3.035156 0.605469 C 3.035156 0.542969 3.019531 0.480469 3.019531 0.433594 C 3.097656 0.386719 3.082031 0.339844 3.113281 0.277344 L 3.140625 0.261719 C 3.140625 0.246094 3.171875 0.203125 3.1875 0.1875 L 3.28125 0.0625 C 3.375 -0.15625 3.589844 -0.214844 3.761719 -0.480469 C 3.792969 -0.574219 3.960938 -0.835938 3.960938 -0.835938 L 3.945312 -0.835938 C 3.933594 -0.820312 3.917969 -0.820312 3.917969 -0.820312 C 3.902344 -0.820312 3.902344 -0.820312 3.902344 -0.835938 C 3.902344 -0.835938 3.917969 -0.851562 3.917969 -0.882812 C 3.917969 -0.929688 3.839844 -0.945312 3.839844 -0.976562 C 3.839844 -1.039062 3.992188 -1.300781 4.054688 -1.441406 C 4.210938 -1.828125 4.304688 -2.089844 4.394531 -2.246094 L 4.410156 -2.246094 C 4.425781 -2.246094 4.441406 -2.246094 4.441406 -2.261719 C 4.441406 -2.289062 4.410156 -2.304688 4.410156 -2.320312 C 4.410156 -2.523438 4.628906 -2.878906 4.691406 -3.125 C 4.738281 -3.125 4.953125 -4.769531 5.046875 -5.355469 L 5.046875 -5.710938 C 5.03125 -6.128906 5.214844 -6.84375 5.292969 -7.492188 L 5.371094 -8.082031 C 5.480469 -8.234375 5.574219 -8.34375 5.589844 -8.589844 C 5.589844 -8.683594 5.589844 -8.824219 5.574219 -8.929688 L 5.574219 -8.960938 C 5.574219 -8.992188 5.558594 -9.054688 5.542969 -9.117188 L 5.511719 -9.164062 C 5.511719 -9.164062 5.511719 -9.179688 5.527344 -9.195312 C 5.527344 -9.195312 5.527344 -9.210938 5.496094 -9.242188 L 5.558594 -9.472656 C 5.867188 -10.199219 5.914062 -10.574219 5.929688 -11.144531 C 5.929688 -11.222656 5.929688 -11.300781 5.914062 -11.347656 C 5.929688 -11.4375 5.929688 -11.515625 5.929688 -11.609375 C 5.929688 -11.828125 5.914062 -12.089844 5.882812 -12.304688 C 5.992188 -12.539062 6.035156 -12.738281 6.035156 -12.878906 L 6.035156 -12.988281 C 6.347656 -12.988281 6.933594 -12.941406 7.769531 -12.878906 L 7.941406 -12.863281 C 8.21875 -12.816406 8.5 -12.800781 8.730469 -12.800781 C 9.242188 -12.800781 9.628906 -12.910156 9.8125 -13.203125 C 9.84375 -13.25 9.96875 -13.203125 9.96875 -13.328125 C 9.96875 -13.453125 9.8125 -13.527344 9.535156 -13.558594 C 8.390625 -13.667969 7.136719 -13.636719 6.871094 -13.667969 C 6.734375 -13.683594 6.4375 -13.683594 6.128906 -13.714844 L 5.277344 -13.699219 C 4.890625 -13.976562 4.351562 -14.210938 4.007812 -14.210938 C 3.808594 -14.210938 3.667969 -14.132812 3.667969 -13.929688 C 3.667969 -13.902344 3.667969 -13.855469 3.683594 -13.808594 L 3.683594 -13.699219 L 2.894531 -13.699219 C 2.011719 -13.699219 0.527344 -13.4375 0.230469 -13.421875 C 0.046875 -13.359375 -0.015625 -13.296875 -0.015625 -13.203125 C -0.015625 -13.066406 0.246094 -12.957031 0.664062 -12.957031 C 0.867188 -12.957031 1.097656 -13.003906 1.238281 -13.050781 C 1.253906 -13.035156 1.269531 -13.035156 1.285156 -13.035156 C 1.347656 -13.035156 1.453125 -13.050781 1.53125 -13.09375 C 1.828125 -13.09375 2.105469 -13.09375 2.398438 -13.09375 L 2.632812 -13.109375 L 3.527344 -13.078125 C 3.390625 -12.632812 3.125 -11.421875 3.050781 -10.03125 L 2.988281 -9.535156 C 2.972656 -9.441406 2.957031 -9.363281 2.957031 -9.304688 L 2.847656 -8.542969 C 2.769531 -8.082031 2.753906 -7.570312 2.617188 -7.121094 C 2.507812 -6.734375 2.460938 -6.410156 2.445312 -6.050781 Z M 2.445312 -6.050781 "/></g></g></g><g fill="rgb(0%, 0%, 0%)" fill-opacity="1"><g transform="translate(47.039425, 19.233868)"><g><path d="M 2.585938 -3.976562 C 2.585938 -4.023438 2.585938 -4.117188 2.570312 -4.164062 C 2.570312 -4.210938 2.570312 -4.289062 2.554688 -4.335938 L 2.539062 -4.378906 C 2.523438 -4.378906 2.523438 -4.394531 2.523438 -4.410156 L 2.554688 -4.535156 C 2.617188 -4.738281 2.648438 -4.953125 2.632812 -5.109375 C 2.554688 -5.648438 2.199219 -6.316406 1.578125 -6.316406 C 1.484375 -6.316406 1.410156 -6.300781 1.347656 -6.253906 C 1.191406 -6.191406 1.097656 -6.019531 1.050781 -5.789062 L 1.050781 -5.695312 C 0.929688 -5.277344 0.742188 -4.828125 0.558594 -4.378906 L 0.308594 -3.589844 C 0.230469 -3.21875 0.171875 -2.894531 0.125 -2.585938 L 0.125 -2.304688 C 0.125 -2.214844 0.109375 -2.121094 0.109375 -2.027344 C 0.109375 -1.175781 0.417969 -0.203125 1.363281 -0.015625 C 1.59375 -0.015625 1.796875 -0.03125 2.011719 -0.140625 L 2.011719 -0.125 C 2.199219 -0.203125 2.382812 -0.339844 2.601562 -0.480469 L 2.585938 -0.480469 L 2.664062 -0.527344 C 2.800781 -0.648438 2.941406 -0.820312 3.082031 -0.976562 L 3.21875 -1.128906 C 3.46875 -1.394531 3.667969 -1.6875 3.855469 -1.964844 L 3.945312 -2.136719 L 3.945312 -2.152344 L 3.992188 -2.277344 L 3.992188 -2.261719 C 4.273438 -2.695312 4.503906 -3.113281 4.707031 -3.453125 L 4.828125 -3.667969 C 4.875 -3.761719 4.9375 -3.855469 4.984375 -3.917969 L 4.984375 -3.933594 C 5.015625 -3.960938 5.015625 -3.992188 5 -4.023438 C 5.078125 -4.226562 5 -4.320312 4.890625 -4.320312 C 4.8125 -4.320312 4.738281 -4.289062 4.660156 -4.210938 C 4.257812 -3.40625 3.558594 -2.289062 3.003906 -1.625 L 2.894531 -1.5 C 2.738281 -1.332031 2.570312 -1.144531 2.382812 -1.039062 C 2.136719 -0.820312 1.933594 -0.664062 1.828125 -0.621094 C 1.703125 -0.648438 1.625 -0.742188 1.625 -0.851562 C 1.625 -0.992188 1.703125 -1.160156 1.8125 -1.363281 L 1.871094 -1.425781 C 1.933594 -1.484375 1.933594 -1.5 1.917969 -1.546875 L 1.902344 -1.5625 C 1.980469 -1.949219 2.105469 -2.382812 2.261719 -2.800781 L 2.261719 -2.894531 C 2.289062 -2.957031 2.335938 -3.066406 2.351562 -3.125 C 2.429688 -3.3125 2.523438 -3.542969 2.601562 -3.792969 C 2.585938 -3.855469 2.585938 -3.917969 2.585938 -3.976562 Z M 2.957031 -10.292969 C 2.722656 -10.292969 2.460938 -10.171875 2.246094 -9.96875 C 2.089844 -9.828125 1.980469 -9.613281 1.996094 -9.289062 C 1.996094 -8.871094 2.199219 -8.5 2.414062 -8.3125 C 2.617188 -8.1875 2.832031 -8.109375 3.035156 -8.09375 C 3.28125 -8.09375 3.34375 -8.171875 3.621094 -8.621094 L 3.808594 -8.929688 C 3.886719 -9.039062 3.933594 -9.148438 3.976562 -9.226562 L 3.960938 -9.226562 C 4.054688 -9.347656 4.117188 -9.472656 4.101562 -9.644531 C 4.070312 -9.738281 3.992188 -9.84375 3.902344 -9.921875 C 3.636719 -10.140625 3.171875 -10.308594 2.957031 -10.292969 Z M 2.957031 -10.292969 "/></g></g></g><g fill="rgb(0%, 0%, 0%)" fill-opacity="1"><g transform="translate(50.769878, 19.233868)"><g><path d="M 0.140625 -1.917969 C 0.140625 -1.902344 0.140625 -1.871094 0.171875 -1.859375 C 0.171875 -1.828125 0.15625 -1.78125 0.15625 -1.75 C 0.125 -1.609375 0.09375 -1.5 0.109375 -1.363281 C 0.1875 -0.574219 0.726562 -0.03125 0.820312 -0.03125 L 1.097656 -0.339844 C 1.625 -0.402344 1.75 -0.742188 1.886719 -1.128906 L 2.027344 -1.484375 C 2.011719 -1.515625 2.011719 -1.546875 2.011719 -1.59375 L 2.011719 -1.671875 L 2.382812 -2.847656 L 2.863281 -3.976562 L 2.863281 -3.960938 C 3.328125 -4.628906 3.945312 -5.371094 4.195312 -5.527344 C 4.164062 -5.449219 4.101562 -5.292969 3.992188 -5.078125 L 3.839844 -4.738281 L 3.886719 -4.550781 C 3.871094 -4.488281 3.808594 -4.394531 3.808594 -4.351562 C 3.714844 -4.132812 3.589844 -3.839844 3.589844 -3.714844 L 3.589844 -3.683594 L 3.621094 -3.621094 C 3.4375 -3.035156 3.28125 -2.398438 3.328125 -1.949219 C 3.375 -1.332031 3.839844 -0.835938 4.007812 -0.835938 C 4.070312 -0.835938 4.054688 -0.867188 4.070312 -0.867188 C 4.351562 -0.726562 4.691406 -0.664062 4.890625 -0.648438 C 5.09375 -0.960938 5.15625 -1.238281 5.324219 -1.453125 C 5.292969 -1.53125 5.371094 -2.199219 5.433594 -2.664062 C 5.464844 -2.925781 5.480469 -3.15625 5.480469 -3.171875 C 5.480469 -3.265625 5.417969 -3.375 5.371094 -3.5 C 5.339844 -3.558594 5.308594 -3.621094 5.292969 -3.699219 C 5.789062 -4.535156 6.625 -5.355469 6.996094 -5.527344 C 6.980469 -5.464844 6.917969 -5.386719 6.871094 -5.292969 C 6.65625 -4.828125 6.253906 -4.007812 6.300781 -3.4375 C 6.113281 -2.878906 5.945312 -2.152344 5.960938 -1.765625 C 5.976562 -1.671875 6.007812 -1.5625 6.066406 -1.46875 C 6.175781 -0.789062 6.515625 -0.308594 6.949219 -0.230469 L 6.964844 -0.230469 C 7.042969 -0.214844 7.105469 -0.203125 7.183594 -0.203125 C 8.125 -0.203125 8.746094 -1.082031 9.304688 -1.886719 L 9.503906 -2.167969 C 9.9375 -2.785156 10.355469 -3.46875 10.617188 -3.992188 L 10.617188 -3.976562 L 10.804688 -4.289062 C 10.851562 -4.363281 10.867188 -4.457031 10.851562 -4.519531 C 10.851562 -4.628906 10.789062 -4.691406 10.679688 -4.691406 C 10.464844 -4.691406 10.0625 -4.007812 9.722656 -3.421875 C 9.378906 -2.722656 8.082031 -1.050781 7.507812 -0.835938 C 7.492188 -0.851562 7.476562 -0.882812 7.476562 -0.898438 C 7.476562 -1.023438 7.554688 -1.238281 7.679688 -1.53125 C 7.679688 -1.5625 7.664062 -1.640625 7.664062 -1.6875 C 7.769531 -2.121094 7.863281 -2.585938 7.941406 -3.035156 L 7.925781 -3.035156 L 8.28125 -3.792969 C 8.28125 -3.871094 8.28125 -3.933594 8.25 -4.023438 C 8.34375 -4.320312 8.421875 -4.597656 8.453125 -4.875 C 8.4375 -4.984375 8.390625 -5.078125 8.328125 -5.171875 C 8.328125 -5.277344 8.34375 -5.464844 8.34375 -5.542969 C 8.28125 -6.066406 7.910156 -6.546875 7.539062 -6.546875 C 7.246094 -6.546875 6.640625 -5.929688 6.191406 -5.464844 L 6.097656 -5.386719 L 6.113281 -5.386719 L 5.773438 -5.09375 L 5.480469 -4.796875 C 5.511719 -4.9375 5.527344 -5.0625 5.527344 -5.199219 C 5.464844 -5.742188 5.109375 -6.5 4.660156 -6.5 C 4.304688 -6.484375 3.25 -5.355469 2.785156 -4.753906 L 2.554688 -4.488281 C 2.554688 -4.566406 2.570312 -4.597656 2.601562 -4.722656 C 2.648438 -4.96875 2.707031 -5.277344 2.679688 -5.589844 C 2.601562 -6.484375 2.042969 -6.933594 1.765625 -6.933594 C 1.671875 -6.933594 1.410156 -6.703125 1.144531 -6.410156 C 0.992188 -6.316406 0.804688 -5.402344 0.679688 -4.707031 L 0.574219 -4.117188 L 0.261719 -3.3125 L 0.355469 -2.925781 C 0.246094 -2.601562 0.125 -2.214844 0.140625 -1.917969 Z M 0.140625 -1.917969 "/></g></g></g><g clip-path="url(#id1)"><g fill="rgb(0%, 0%, 0%)" fill-opacity="1"><g transform="translate(60.041832, 19.233868)"><g><path d="M 4.039062 -3.652344 C 4.257812 -3.902344 4.582031 -4.472656 4.613281 -4.613281 C 4.722656 -4.84375 4.769531 -5.078125 4.769531 -5.292969 C 4.628906 -6.347656 3.542969 -6.378906 3.375 -6.378906 C 3.3125 -6.378906 3.234375 -6.378906 3.15625 -6.347656 C 3.140625 -6.363281 3.125 -6.363281 3.097656 -6.363281 C 3.035156 -6.363281 2.941406 -6.316406 2.863281 -6.285156 C 2.785156 -6.238281 2.722656 -6.207031 2.679688 -6.207031 L 2.570312 -6.207031 C 2.523438 -6.207031 2.476562 -6.222656 2.429688 -6.222656 C 2.320312 -6.222656 2.183594 -6.191406 2.042969 -6.066406 L 1.964844 -6.007812 L 1.964844 -6.019531 C 1.917969 -6.007812 1.886719 -5.976562 1.84375 -5.929688 C 1.65625 -5.773438 1.46875 -5.574219 1.300781 -5.371094 L 1.097656 -5.15625 C 0.945312 -5.046875 0.710938 -4.644531 0.558594 -4.394531 L 0.496094 -4.304688 L 0.386719 -4.007812 C 0.230469 -3.699219 0.09375 -3.375 0.015625 -3.035156 C 0.015625 -3.003906 0 -2.957031 0 -2.925781 C -0.015625 -2.910156 -0.015625 -2.878906 -0.015625 -2.863281 C -0.0625 -2.539062 -0.109375 -2.199219 -0.109375 -1.871094 C -0.09375 -1.859375 -0.109375 -1.640625 -0.109375 -1.410156 C -0.125 -1.175781 -0.125 -0.945312 -0.125 -0.945312 C -0.125 -0.820312 -0.0625 -0.679688 0.015625 -0.558594 L 0 -0.558594 C 0.109375 0.125 0.480469 0.417969 0.757812 0.527344 L 0.773438 0.542969 C 1.128906 0.773438 1.6875 0.851562 2.105469 0.851562 C 2.585938 0.851562 2.878906 0.632812 3.28125 0.371094 L 3.761719 0.046875 C 4.039062 -0.140625 4.363281 -0.496094 4.582031 -0.757812 L 4.613281 -0.789062 C 4.753906 -1.039062 5.046875 -1.300781 5.230469 -1.546875 L 5.542969 -1.949219 L 5.589844 -2.089844 C 5.605469 -2.121094 5.617188 -2.136719 5.617188 -2.167969 L 5.695312 -2.289062 C 5.882812 -2.523438 6.066406 -2.800781 6.144531 -2.972656 C 6.363281 -3.25 6.515625 -3.453125 6.5 -3.621094 C 6.484375 -3.699219 6.484375 -3.730469 6.453125 -3.730469 C 6.453125 -3.730469 6.4375 -3.714844 6.410156 -3.699219 L 6.410156 -3.714844 L 6.332031 -3.683594 C 6.300781 -3.683594 6.238281 -3.667969 6.191406 -3.636719 C 6.050781 -3.589844 5.742188 -3.066406 5.449219 -2.585938 C 5.292969 -2.320312 5.046875 -2.074219 4.9375 -1.917969 C 4.890625 -1.84375 4.8125 -1.734375 4.769531 -1.640625 C 3.886719 -0.527344 2.722656 0.125 2.277344 0.125 C 2.011719 0.125 1.71875 0.015625 1.703125 -0.15625 C 1.6875 -0.339844 1.65625 -0.632812 1.65625 -0.929688 C 1.65625 -1.300781 1.6875 -1.671875 1.828125 -1.84375 L 2.214844 -2.027344 C 2.382812 -2.105469 3.019531 -2.617188 3.21875 -2.832031 C 3.5 -3.050781 3.761719 -3.3125 3.960938 -3.589844 Z M 3.234375 -4.472656 C 3.46875 -4.78125 3.761719 -5.09375 3.886719 -5.125 C 3.945312 -5.09375 3.992188 -5.03125 4.039062 -5 C 4.007812 -4.441406 3.527344 -3.730469 2.910156 -3.125 L 2.570312 -2.847656 C 2.460938 -2.753906 2.335938 -2.648438 2.214844 -2.585938 C 2.304688 -2.894531 2.632812 -3.558594 3.050781 -4.195312 C 3.050781 -4.210938 3.082031 -4.242188 3.082031 -4.257812 C 3.097656 -4.320312 3.140625 -4.378906 3.15625 -4.410156 Z M 3.234375 -4.472656 "/></g></g></g></g></svg>